# xmcd
#
# Track frame offsets: 
#        150
#        54357
#        87881
#        135795
#        150689
#        192388
#        248263
#        297057
#
# Disc length: 4361 seconds
#
# Revision: 1
# Processed by: cddbd v1.5.2PL0 Copyright (c) Steve Scherf et al.
# Submitted via: ExactAudioCopy v1.0b3
#
DISCID=59110708
DTITLE=Sahib Shihab - Sahib's Jazz Party
DYEAR=1963
DGENRE=Jazz
TTITLE0=4070 Blues
TTITLE1=Charade
TTITLE2=Conversations, part I
TTITLE3=Conversations, part II
TTITLE4=Conversations, part III
TTITLE5=Billy Boy
TTITLE6=Not Yet
TTITLE7=Someday My Prince Will Come
EXTD=YEAR: 1963
EXTT0=
EXTT1=
EXTT2=
EXTT3=
EXTT4=
EXTT5=
EXTT6=
EXTT7=
PLAYORDER=
